# xmcd
#
# Track frame offsets:
#	150
#	12754
#	24776
#	36496
#	50847
#	62439
#	74376
#	87624
#	99349
#	115487
#	131258
#	146819
#	162292
#	178847
#	190124
#	206542
#	218625
#	236380
#	251211
#	265035
#	277789
#
# Disc length: 3884 seconds
#
# Revision: 3
# Processed by: cddbd v1.5.2PL0 Copyright (c) Steve Scherf et al.
# Submitted via: EasyCDDAExtractor 12.0.1.1
#
DISCID=2b0f2a15
DTITLE=Various Artist - The Ultimate Ballroom Album12 CD1
DYEAR=2009
DGENRE=Dance
TTITLE0=Danny Willams - SF 29 - Steppin' Out With My Baby
TTITLE1=Nancy Wilson - SF 29 - Tonight
TTITLE2=Joe Girard - SF 29 - Fly Me To The Moon
TTITLE3=Jack Jones - SF 29 - Stranger In Paradise
TTITLE4=Ella Fitzgerald - SF 29 - Anything Goes
TTITLE5=Joe Girard - SF 29 - Nice 'N' Easy
TTITLE6=Jack Jones - SF 29 - Every Breath I Take
TTITLE7=Carmen McRae - SF 29 - Blue Moon
TTITLE8=Buddy Greco - SF 29 - Yes Sir That's My Baby
TTITLE9=Mel Torme - SF 29 - Vaya Con Dios
TTITLE10=Gelato Swing Band - QS 50 - Topsy
TTITLE11=Bill Elliott Orch. - QS 50 - Pep,Vim and Verve
TTITLE12=Bill Elliott Orch. - QS 50 - White Heat Stomp
TTITLE13=Lucky Strikes - QS 50 - Swing Let's Swing
TTITLE14=Billy May Orch. - QS 50 - March Of The Toys
TTITLE15=S.Lawrence and E.Gorme - QS 50 - This Could Be The Start Of Something B
TTITLE15=ig
TTITLE16=Club Des Belugas - QS 50 - It Don't Mean A Thing
TTITLE17=Count Basie Orch. - QS 50 - Flight Of The Foo Birds
TTITLE18=B. Darin and J. Mercer - QS 50 - Indiana
TTITLE19=G.Benson and C.Basie - QS 50 - Basie's Bag Boogie
TTITLE20=Gelato Swing Band - QS 50 - Josephina Don't Lean ...
EXTD=
EXTT0=
EXTT1=
EXTT2=
EXTT3=
EXTT4=
EXTT5=
EXTT6=
EXTT7=
EXTT8=
EXTT9=
EXTT10=
EXTT11=
EXTT12=
EXTT13=
EXTT14=
EXTT15=
EXTT16=
EXTT17=
EXTT18=
EXTT19=
EXTT20=
PLAYORDER=
